<svg width="1396" height="320" viewBox="0 0 1396 320" fill="none" xmlns="http://www.w3.org/2000/svg">
<path d="M480.257 110.918C480.257 104.26 475.121 98.7974 467.932 98.7974C460.743 98.7974 455.607 104.26 455.607 110.918V209.25C455.607 215.909 460.743 221.372 467.932 221.372C475.292 221.372 480.257 215.909 480.257 209.25V110.918Z" fill="white"/>
<path d="M601.626 98.7974C594.437 98.7974 589.472 104.26 589.472 110.918V152.915L590.156 190.473L575.264 155.304L555.75 115.357C549.759 102.894 542.913 98.7974 533.156 98.7974C518.777 98.7974 512.443 107.845 512.443 120.82V209.25C512.443 215.909 517.407 221.372 524.597 221.372C531.787 221.372 536.75 215.909 536.75 209.25L536.579 167.767L536.066 125.258L551.985 164.181L571.67 204.812C577.833 217.786 584.338 221.543 594.265 221.543C607.103 221.543 613.779 213.689 613.779 199.179V110.918C613.779 104.26 608.815 98.7974 601.626 98.7974Z" fill="white"/>
<path d="M704.663 123.893L732.564 124.576C739.069 124.746 744.204 119.796 744.204 112.625C744.204 105.455 739.069 100.505 732.564 100.505L651.769 100.334C645.436 100.334 640.13 105.285 640.13 112.455C640.13 119.625 645.436 124.576 651.769 124.405L679.842 123.893V209.25C679.842 215.909 684.977 221.372 692.167 221.372C699.527 221.372 704.663 215.909 704.663 209.25V123.893Z" fill="white"/>
<path d="M787.378 219.835H847.46C853.794 219.835 858.93 215.055 858.93 208.397C858.93 201.569 853.794 196.788 847.46 196.788L795.252 196.959V168.449H840.442C846.605 168.449 851.568 163.84 851.568 157.524C851.568 151.036 846.605 146.427 840.442 146.427L795.252 146.768V123.21H847.46C853.794 123.21 858.93 118.43 858.93 111.601C858.93 104.772 853.794 100.163 847.46 100.163L787.549 100.334C776.593 100.334 770.432 106.479 770.432 117.405V202.764C770.432 213.689 776.593 219.835 787.378 219.835Z" fill="white"/>
<path d="M956.793 171.181C973.054 166.913 982.64 154.281 982.64 137.55C982.64 118.942 970.486 100.334 941.387 100.334H903.728C892.773 100.334 886.61 106.48 886.61 117.405V209.25C886.61 215.909 891.746 221.372 899.278 221.372C906.638 221.372 911.945 215.909 911.945 209.25L911.774 177.155H932.486L953.54 215.055C956.963 220.86 964.153 223.249 970.829 219.835C977.505 216.251 979.388 209.08 975.793 203.276L956.793 171.181ZM911.774 123.039H941.558C951.657 123.039 957.991 129.356 957.991 138.745C957.991 147.964 952 154.793 941.901 154.793H911.774V123.039Z" fill="white"/>
<path d="M1058.24 222.054C1083.24 222.054 1099.33 210.787 1104.8 192.52C1107.71 182.106 1101.55 174.595 1092.31 174.595C1086.66 174.595 1082.89 177.497 1080.67 183.814C1077.25 193.374 1068.86 199.35 1056.88 199.35C1037.87 199.35 1029.66 186.545 1029.66 159.913C1029.66 133.794 1038.05 121.332 1056.88 121.332C1068.69 121.332 1075.53 126.283 1079.81 137.72C1082.21 144.208 1086.15 147.11 1091.97 147.11C1100.87 147.11 1107.37 139.94 1104.63 130.038C1099.16 109.894 1083.24 98.6265 1057.56 98.6265C1022.3 98.6265 1004.32 120.137 1004.32 159.913C1004.32 200.032 1022.3 222.054 1058.24 222.054Z" fill="white"/>
<path d="M1179.94 221.714C1216.23 221.714 1234.21 199.519 1234.21 159.913C1234.21 119.966 1215.72 97.9436 1179.94 97.9436C1144 97.9436 1126.02 120.307 1125.85 159.913C1125.85 199.69 1144.17 221.714 1179.94 221.714ZM1179.94 198.838C1159.74 198.838 1151.02 186.034 1151.02 159.913C1151.02 133.453 1159.92 120.649 1179.77 120.649C1199.8 120.649 1209.21 133.453 1209.04 159.913C1209.04 186.203 1200.14 198.838 1179.94 198.838Z" fill="white"/>
<path d="M1393.55 120.137C1393.55 106.65 1385.17 98.6265 1372.16 98.6265C1361.54 98.6265 1353.5 104.431 1349.56 117.747L1336.38 160.596L1327.65 191.496L1319.26 160.596L1305.23 117.747C1301.29 105.284 1294.44 98.6265 1282.46 98.6265C1269.28 98.6265 1261.06 106.479 1261.06 120.137V209.25C1261.06 215.909 1265.86 221.372 1272.88 221.372C1279.89 221.372 1284.69 215.909 1284.69 209.25L1284.52 166.23L1283.32 120.137L1296.84 167.255L1311.22 208.909C1314.3 218.128 1320.12 221.201 1327.65 221.201C1334.67 221.201 1340.32 218.64 1343.23 209.25L1356.92 167.255L1371.47 119.795L1370.1 166.23V209.25C1370.1 215.909 1375.07 221.372 1381.92 221.372C1388.93 221.372 1393.73 215.909 1393.73 209.25L1393.55 120.137Z" fill="white"/>
<path d="M277.076 176.045C277.076 178.891 275.955 181.619 273.959 183.631C271.963 185.642 269.255 186.773 266.432 186.773C263.609 186.773 260.902 185.642 258.906 183.631C256.91 181.619 255.788 178.891 255.788 176.045V80.2144C255.788 77.3696 256.91 74.6412 258.906 72.6296C260.902 70.6178 263.609 69.4877 266.432 69.4877C269.255 69.4877 271.963 70.6178 273.959 72.6296C275.955 74.6412 277.076 77.3696 277.076 80.2144V176.045ZM273.381 242.446C271.974 243.864 232.391 277.108 159.824 277.108C87.2568 277.108 47.9384 244.041 46.2672 242.622C45.214 241.728 44.3465 240.632 43.7143 239.398C43.0822 238.164 42.6978 236.817 42.5835 235.433C42.4691 234.05 42.6267 232.657 43.0476 231.334C43.4684 230.013 44.1441 228.787 45.0357 227.729C46.8727 225.587 49.4756 224.264 52.2768 224.047C55.078 223.832 57.8502 224.741 59.989 226.577C60.6048 227.02 95.9648 255.92 159.736 255.92C223.507 255.92 259.131 226.843 259.484 226.577C261.646 224.757 264.428 223.86 267.236 224.075C270.045 224.291 272.66 225.601 274.524 227.729C276.319 229.839 277.214 232.579 277.017 235.35C276.82 238.122 275.545 240.704 273.469 242.534L273.381 242.446ZM42.4849 80.2144C42.6439 77.3606 43.9176 74.6861 46.0273 72.7758C48.137 70.8655 50.9113 69.8746 53.7439 70.0196C56.3697 70.1699 58.8474 71.2948 60.699 73.1773C62.5507 75.0598 63.6452 77.5668 63.7713 80.2144V175.869C63.7713 178.713 62.6499 181.441 60.654 183.453C58.658 185.466 55.9509 186.595 53.1281 186.595C50.3054 186.595 47.5982 185.466 45.6022 183.453C43.6063 181.441 42.4849 178.713 42.4849 175.869V80.2144ZM95.8769 58.9383C96.0359 56.0843 97.3096 53.41 99.4193 51.4997C101.529 49.5893 104.303 48.5984 107.136 48.7435C109.762 48.8938 112.239 50.0186 114.091 51.9012C115.943 53.7837 117.037 56.2905 117.163 58.9383V200.779C117.163 203.625 116.042 206.353 114.046 208.364C112.05 210.376 109.343 211.505 106.52 211.505C103.697 211.505 100.99 210.376 98.9942 208.364C96.9983 206.353 95.8769 203.625 95.8769 200.779V58.9383ZM149.533 53.6192C149.533 50.7744 150.654 48.046 152.65 46.0344C154.646 44.0226 157.353 42.8925 160.175 42.8925C162.999 42.8925 165.706 44.0226 167.702 46.0344C169.698 48.046 170.819 50.7744 170.819 53.6192V207.872C170.819 210.716 169.698 213.444 167.702 215.457C165.706 217.468 162.999 218.598 160.175 218.598C157.353 218.598 154.646 217.468 152.65 215.457C150.654 213.444 149.533 210.716 149.533 207.872V53.6192ZM202.309 58.9383C202.309 56.0934 203.431 53.365 205.427 51.3533C207.423 49.3417 210.13 48.2115 212.952 48.2115C215.775 48.2115 218.482 49.3417 220.478 51.3533C222.474 53.365 223.595 56.0934 223.595 58.9383V200.779C223.595 203.625 222.474 206.353 220.478 208.364C218.482 210.376 215.775 211.505 212.952 211.505C210.13 211.505 207.423 210.376 205.427 208.364C203.431 206.353 202.309 203.625 202.309 200.779V58.9383ZM279.978 0.428864H40.0219C34.7934 0.393837 29.6094 1.39856 24.7668 3.38549C19.9241 5.37243 15.5178 8.30258 11.8002 12.0081C8.08269 15.7137 5.12685 20.1218 3.102 24.9804C1.07714 29.8388 0.0230199 35.052 0 40.3217V279.679C0.0230199 284.948 1.07714 290.162 3.102 295.02C5.12685 299.878 8.08269 304.287 11.8002 307.992C15.5178 311.697 19.9241 314.628 24.7668 316.614C29.6094 318.602 34.7934 319.606 40.0219 319.571H279.978C285.199 319.606 290.376 318.605 295.212 316.623C300.05 314.642 304.452 311.719 308.169 308.023C311.885 304.327 314.843 299.929 316.872 295.081C318.903 290.233 319.966 285.029 319.999 279.767V40.3217C319.977 35.0596 318.926 29.8536 316.906 25.001C314.887 20.1483 311.94 15.7441 308.23 12.0396C304.522 8.33524 300.127 5.40324 295.294 3.41107C290.462 1.41888 285.287 0.405529 280.066 0.428864" fill="white"/>
</svg>
