<svg width="819" height="320" viewBox="0 0 819 320" fill="none" xmlns="http://www.w3.org/2000/svg">
<g clip-path="url(#clip0_261:55)">
<path d="M726.432 45.4637C675.908 45.4637 634.794 86.7555 634.794 137.517C634.794 188.279 675.908 229.57 726.432 229.57C776.945 229.57 818.047 188.279 818.047 137.517C818.047 86.7555 776.945 45.4637 726.432 45.4637V45.4637ZM726.432 185.944C699.861 185.944 678.219 164.196 678.219 137.517C678.219 110.827 699.861 89.0904 726.432 89.0904C752.981 89.0904 774.634 110.827 774.634 137.517C774.634 164.207 752.992 185.944 726.421 185.944H726.432ZM456.59 118.874L440.566 110.839C433.609 107.378 429.247 104.699 427.493 102.72C425.821 100.966 424.869 98.648 424.827 96.2252C424.827 93.12 426.225 90.5007 428.975 88.4622C431.701 86.3289 435.576 85.357 440.495 85.357C449.49 85.357 459.458 90.7852 470.432 101.724L497.478 74.5481C490.833 65.4985 482.142 58.1481 472.115 53.0963C462.22 48.1176 451.287 45.5509 440.21 45.6059C423.701 45.6059 410.071 50.477 399.452 60.2904C388.844 70.1037 383.511 81.8963 383.511 95.7274C383.511 117.179 397.555 135.052 425.739 149.239L440.495 156.646C453.212 163.081 459.541 169.636 459.541 176.415C459.541 180.089 457.775 183.265 454.267 186.086C450.758 188.919 446.112 190.258 440.352 190.258C435.019 190.258 428.904 188.421 422.018 184.687C415.156 181.014 409.052 176.076 404.027 170.133L377.123 199.573C392.293 219.484 412.524 229.511 437.958 229.511C457.075 229.511 472.329 224.284 483.635 213.902C495.013 203.532 500.702 190.542 500.702 175.004C500.702 163.354 497.55 153.126 491.292 144.439C484.975 135.751 473.384 127.289 456.59 118.886V118.874ZM184.518 209.517V49.1259H141.022V59.8637C126.366 50.4434 109.307 45.4442 91.8843 45.4637C41.3718 45.4637 0.269531 86.7555 0.269531 137.517C0.269531 188.279 41.3718 229.57 91.8962 229.57C109.11 229.596 125.975 224.725 140.524 215.526C140.524 216.936 140.453 218.204 140.453 219.058C140.453 245.736 118.812 267.484 92.2518 267.484C83.2208 267.464 74.3795 264.892 66.7466 260.065L45.2355 297.908C59.4199 306.56 75.7078 311.152 92.3229 311.182C142.847 311.182 184.518 269.879 184.518 219.117C184.518 217.15 184.649 211.354 184.518 209.517V209.517ZM91.8962 185.932C65.348 185.932 43.6947 164.196 43.6947 137.517C43.6947 110.827 65.3362 89.0904 91.8962 89.0904C118.456 89.0904 140.098 110.827 140.098 137.517C140.098 164.196 118.456 185.944 91.8962 185.944V185.932ZM357.781 49.0667H314.071V136.581C314.142 149.013 314.142 170.477 305.016 179.65C300.655 184.024 295.878 187.982 285.828 187.982C275.707 187.982 270.93 184.024 266.581 179.65C257.443 170.465 257.514 148.942 257.573 136.581V49.0667H213.875V136.32C213.733 154.311 213.52 187.71 235.446 209.873C248.305 222.862 263.63 229.499 285.757 229.499C307.896 229.499 323.209 222.933 336.068 209.873C357.994 187.71 357.781 154.24 357.638 136.32L357.781 49.0548V49.0667ZM605.472 178.11C601.964 180.788 593.455 186.726 583.831 185.387C575.961 184.32 569.573 178.536 568.59 159.194V86.6252H619.955V48.9244H568.59V0H525.022V9.6H524.951V153.481C524.951 176.356 530.711 229.499 583.76 229.499C610.604 229.084 626.901 214.471 633.727 208.759L634.64 208.047L608.495 175.716C608.424 175.775 606.598 177.256 605.472 178.11V178.11Z" fill="#F45D48"/>
</g>
<defs>
<clipPath id="clip0_261:55">
<rect width="817.778" height="320" fill="white" transform="translate(0.269531)"/>
</clipPath>
</defs>
</svg>
