<svg width="928" height="320" viewBox="0 0 928 320" fill="none" xmlns="http://www.w3.org/2000/svg">
<g clip-path="url(#clip0)">
<path fill-rule="evenodd" clip-rule="evenodd" d="M196.32 0.725526L19.2533 13.8029C4.97067 15.0402 0 24.3735 0 35.5629V229.675C0 238.39 3.09333 245.846 10.56 255.808L52.1813 309.931C59.0187 318.646 65.2373 320.512 78.2933 319.894L283.915 307.446C301.301 306.208 306.283 298.112 306.283 284.427V66.0482C306.283 64.6129 306.168 63.3847 305.915 62.2882C305.286 59.5522 303.802 57.6364 301.118 55.369C299.579 54.0687 297.645 52.6527 295.251 50.9001C295.023 50.7329 294.79 50.5625 294.553 50.389C294.317 50.2186 294.081 50.0481 293.845 49.8775L237.333 10.0589C223.659 0.117526 218.069 -1.14114 196.32 0.725526ZM52.8107 56.1069C62.3467 63.8615 66.1547 63.6055 82.944 62.4749L85.12 62.3255L260.907 51.7442C264.64 51.7442 261.536 48.0215 260.288 47.3922L231.093 26.2402C225.504 21.8882 218.059 16.9069 203.765 18.1549L33.5467 30.5922C27.3387 31.2109 26.1013 34.3255 28.5653 36.8215L52.8107 56.1069ZM63.3707 97.1735V282.56C63.3707 292.523 68.3307 296.246 79.5093 295.627L272.715 284.427C283.893 283.808 285.141 276.96 285.141 268.864V84.7149C285.141 76.6295 282.048 72.2775 275.2 72.8962L73.3013 84.7149C65.856 85.3442 63.3707 89.0775 63.3707 97.1735ZM248.491 118.955C254.091 118.315 255.328 112.715 254.091 107.115L211.211 109.611C205.003 110.219 200.032 115.2 201.28 122.059L217.429 123.915V209.771L154.069 112.726L108.096 115.819C99.392 116.448 96.288 124.534 97.536 130.134L113.067 131.392V253.952L101.877 257.056C97.536 258.294 96.288 264.512 97.536 267.008L140.384 264.523C155.925 264.523 155.925 253.323 155.925 253.323L136.661 248.96V156.267L197.557 252.075L197.562 252.081C205.004 261.399 207.49 264.512 217.429 264.512C223.648 264.512 231.093 262.027 239.179 257.675V120.8L248.491 118.955Z" fill="white"/>
<path d="M441.962 226.677V142.304H443.423L504.266 226.677H523.423V102.688H502.122V186.976H500.661L439.818 102.688H420.586V226.666H441.973L441.962 226.677ZM583.626 228.576C611.733 228.576 628.831 210.186 628.831 179.68C628.831 149.258 611.647 130.784 583.626 130.784C555.701 130.784 538.431 149.344 538.431 179.68C538.431 210.186 555.445 228.576 583.626 228.576ZM583.626 210.699C568.767 210.699 560.266 199.36 560.266 179.68C560.266 160.085 568.767 148.661 583.626 148.661C598.41 148.661 606.911 160.085 606.911 179.68C606.911 199.36 598.495 210.699 583.626 210.699ZM648.298 109.653V133.28H633.439V150.293H648.298V201.589C648.298 219.808 656.895 227.114 678.463 227.114C682.581 227.114 686.538 226.688 689.631 226.08V209.408C687.05 209.664 685.418 209.835 682.41 209.835C673.482 209.835 669.525 205.717 669.525 196.437V150.293H689.631V133.28H669.525V109.642H648.298V109.653ZM702.399 226.677H723.626V132.672H702.399V226.677ZM712.97 117.13C720.01 117.13 725.685 111.445 725.685 104.32C725.685 97.1838 720.021 91.4238 712.97 91.4238C706.015 91.4238 700.255 97.1838 700.255 104.32C700.255 111.445 706.015 117.12 712.97 117.12V117.13ZM781.855 228.576C809.951 228.576 827.05 210.186 827.05 179.68C827.05 149.258 809.866 130.784 781.855 130.784C753.919 130.784 736.65 149.344 736.65 179.68C736.65 210.186 753.663 228.576 781.855 228.576ZM781.855 210.699C766.986 210.699 758.474 199.36 758.474 179.68C758.474 160.085 766.986 148.661 781.855 148.661C796.629 148.661 805.141 160.085 805.141 179.68C805.141 199.36 796.714 210.699 781.855 210.699ZM839.733 226.677H861.045V171.947C861.045 158.112 869.045 149.344 881.749 149.344C894.73 149.344 900.735 156.565 900.735 170.912V226.677H922.058V165.845C922.058 143.413 910.623 130.784 889.663 130.784C875.647 130.784 866.197 137.226 861.727 147.712H860.266V132.672H839.733V226.677V226.677Z" fill="white"/>
</g>
<defs>
<clipPath id="clip0">
<rect width="928" height="320" fill="white"/>
</clipPath>
</defs>
</svg>
