<svg width="175" height="36" viewBox="0 0 175 36" fill="none" xmlns="http://www.w3.org/2000/svg">
<path d="M31.4331 8.51587L27.7877 6.40666L20.6497 2.27943L17.0028 0.17022C16.8104 0.0587146 16.5921 0 16.3699 0C16.1476 0 15.9293 0.0587146 15.7369 0.17022L14.5205 0.873534L12.0893 2.27943L10.2392 3.34973L1.03419 8.71651C0.996128 8.73892 0.964569 8.77091 0.942641 8.8093C0.920714 8.84769 0.90918 8.89115 0.90918 8.93538C0.90918 8.97961 0.920714 9.02307 0.942641 9.06146C0.964569 9.09985 0.996128 9.13184 1.03419 9.15425C2.28989 9.87727 3.53393 10.5806 4.79108 11.3065C4.82964 11.3287 4.87334 11.3404 4.91782 11.3404C4.9623 11.3404 5.006 11.3287 5.04455 11.3065C8.80654 9.11778 12.0194 7.27851 15.734 5.12187C15.9266 5.01024 16.1452 4.95146 16.3677 4.95146C16.5902 4.95146 16.8088 5.01024 17.0013 5.12187L27.1525 10.9921C27.3453 11.103 27.5054 11.2628 27.6169 11.4554C27.7284 11.6481 27.7873 11.8667 27.7877 12.0894V23.8947C27.787 24.1165 27.7283 24.3343 27.6173 24.5264C27.5064 24.7184 27.3471 24.8779 27.1554 24.989L25.5567 25.9156L21.2761 28.3911L16.498 31.1554C16.4596 31.1776 16.4277 31.2095 16.4054 31.2479C16.3832 31.2863 16.3714 31.3299 16.3713 31.3743V35.743C16.3713 35.7875 16.3831 35.8312 16.4053 35.8696C16.4275 35.9081 16.4595 35.9401 16.4979 35.9623C16.5364 35.9844 16.58 35.9961 16.6244 35.996C16.6688 35.996 16.7124 35.9842 16.7508 35.9619L25.5589 30.8687L27.7877 29.5774L29.8387 28.3911L31.4353 27.4674C31.6272 27.3565 31.7867 27.197 31.8978 27.005C32.0089 26.8129 32.0677 26.595 32.0682 26.373V9.61389C32.0679 9.39114 32.009 9.17242 31.8975 8.97968C31.786 8.78695 31.6258 8.62699 31.4331 8.51587Z" fill="#EE2938"/>
<path d="M13.2038 19.1901C8.88966 16.6942 4.69867 14.2567 0.380205 11.7586C0.341746 11.7364 0.298128 11.7247 0.25372 11.7246C0.209311 11.7246 0.165671 11.7362 0.127168 11.7584C0.0886649 11.7805 0.0566514 11.8124 0.0343331 11.8509C0.0120149 11.8894 0.0001755 11.933 0 11.9775V15.7582C0.000289278 15.98 0.0587803 16.1979 0.169612 16.39C0.280443 16.582 0.439723 16.7416 0.63149 16.8525L8.92317 21.6627C9.11493 21.7736 9.27421 21.9332 9.38505 22.1252C9.49588 22.3173 9.55437 22.5352 9.55466 22.757V32.9967C9.55468 33.2201 9.61363 33.4396 9.72554 33.633C9.83745 33.8263 9.99836 33.9866 10.192 34.0976L13.4565 35.9668C13.4949 35.9889 13.5384 36.0005 13.5827 36.0005C13.6269 36.0005 13.6704 35.9888 13.7088 35.9666C13.7472 35.9444 13.779 35.9126 13.8012 35.8742C13.8234 35.8358 13.8351 35.7923 13.8352 35.7479V20.2881C13.8352 20.0657 13.7769 19.8473 13.6661 19.6546C13.5552 19.4619 13.3958 19.3017 13.2038 19.1901Z" fill="#EE2938"/>
<path d="M40.4516 8.87695H43.6025C43.7043 8.87697 43.8036 8.90902 43.8863 8.96858C43.9691 9.02814 44.031 9.1122 44.0635 9.20891L48.5211 22.5011L52.9525 9.20964C52.9848 9.11279 53.0467 9.02857 53.1295 8.96887C53.2122 8.90918 53.3115 8.87702 53.4135 8.87695H56.5637C56.6421 8.877 56.7193 8.89604 56.7888 8.93244C56.8583 8.96885 56.918 9.02154 56.9628 9.08602C57.0076 9.15051 57.0361 9.22489 57.046 9.30282C57.0559 9.38074 57.0469 9.45991 57.0196 9.53357L50.7251 26.5503C50.6906 26.6436 50.6284 26.7241 50.5469 26.7809C50.4654 26.8378 50.3685 26.8683 50.2692 26.8684H46.7468C46.647 26.8689 46.5494 26.8387 46.4673 26.7818C46.3852 26.7249 46.3226 26.6441 46.2879 26.5503L39.9956 9.53357C39.9684 9.45991 39.9593 9.38074 39.9692 9.30282C39.9791 9.22489 40.0077 9.15051 40.0525 9.08602C40.0972 9.02154 40.1569 8.96885 40.2264 8.93244C40.2959 8.89604 40.3732 8.877 40.4516 8.87695Z" fill="#0F2233"/>
<path d="M58.9077 21.4169C59.2245 22.9249 60.545 23.904 62.3936 23.904C63.6959 23.904 64.9817 23.6134 66.1578 23.0533C66.2319 23.0168 66.3141 22.9998 66.3965 23.004C66.479 23.0082 66.559 23.0334 66.629 23.0773C66.6991 23.1211 66.7568 23.1821 66.7967 23.2545C66.8366 23.3269 66.8573 23.4084 66.857 23.4911V25.8257C66.8563 25.9202 66.8284 26.0124 66.7767 26.0915C66.7251 26.1705 66.6518 26.233 66.5657 26.2715C65.4207 26.8026 63.8496 27.1616 62.0994 27.1616C58.191 27.1616 55.3125 24.3833 55.3125 20.2831C55.3125 16.4207 58.0854 13.4316 61.8882 13.4316C65.6909 13.4316 68.0421 16.2887 68.0421 19.7009C68.0347 20.1438 67.9919 20.5854 67.9139 21.0214C67.8935 21.1338 67.8343 21.2353 67.7467 21.3083C67.6591 21.3813 67.5486 21.421 67.4346 21.4205L58.9077 21.4169ZM59.5632 18.6926H64.0062C64.0839 18.6924 64.1603 18.6737 64.2293 18.6379C64.2982 18.6022 64.3577 18.5506 64.4028 18.4872C64.4478 18.4239 64.4772 18.3508 64.4884 18.2738C64.4996 18.1969 64.4924 18.1184 64.4673 18.0448C64.1344 17.0555 63.1358 16.4171 61.8641 16.4171C60.5924 16.4171 59.5632 17.0897 59.1204 18.0039C59.0863 18.0783 59.0715 18.16 59.0773 18.2417C59.0832 18.3233 59.1096 18.4021 59.1539 18.4708C59.1983 18.5395 59.2593 18.5958 59.3312 18.6346C59.4032 18.6734 59.4837 18.6933 59.5654 18.6926H59.5632Z" fill="#0F2233"/>
<path d="M73.0032 15.359C73.6973 14.2515 74.7673 13.4701 76.334 13.4293C78.9699 13.3614 81.1113 15.564 81.1113 18.2051V26.3764C81.1113 26.5056 81.06 26.6296 80.9688 26.721C80.8775 26.8124 80.7538 26.8637 80.6248 26.8637H77.9793C77.8503 26.8637 77.7266 26.8124 77.6353 26.721C77.5441 26.6296 77.4928 26.5056 77.4928 26.3764V19.3797C77.4928 17.9249 76.6188 16.9458 75.248 16.9458C73.9275 16.9458 73.0826 17.8213 73.0032 19.2214V26.3793C73.0032 26.5085 72.9519 26.6325 72.8607 26.7239C72.7694 26.8153 72.6457 26.8666 72.5166 26.8666H69.8982C69.7691 26.8666 69.6454 26.8153 69.5541 26.7239C69.4629 26.6325 69.4116 26.5085 69.4116 26.3793V14.1793C69.4116 14.1153 69.4242 14.052 69.4487 13.9929C69.4731 13.9338 69.509 13.8801 69.5542 13.8349C69.5994 13.7897 69.653 13.7539 69.712 13.7295C69.7711 13.7051 69.8343 13.6925 69.8982 13.6926H72.5166C72.5805 13.6925 72.6437 13.7051 72.7028 13.7295C72.7618 13.7539 72.8154 13.7897 72.8606 13.8349C72.9058 13.8801 72.9417 13.9338 72.9661 13.9929C72.9906 14.052 73.0032 14.1153 73.0032 14.1793V15.359Z" fill="#0F2233"/>
<path d="M84.0513 26.3781V16.76H82.5305C82.4666 16.76 82.4033 16.7474 82.3443 16.7229C82.2853 16.6984 82.2316 16.6625 82.1865 16.6173C82.1413 16.572 82.1054 16.5183 82.081 16.4592C82.0565 16.4 82.0439 16.3367 82.0439 16.2727V14.178C82.0439 14.1141 82.0565 14.0507 82.081 13.9916C82.1055 13.9326 82.1413 13.8789 82.1865 13.8337C82.2317 13.7885 82.2853 13.7527 82.3444 13.7282C82.4034 13.7038 82.4666 13.6913 82.5305 13.6914H84.2625V9.28037C84.2626 9.16984 84.3001 9.06259 84.3689 8.97618C84.4377 8.88977 84.5337 8.82931 84.6413 8.80469L87.0493 8.81709C87.377 8.78937 87.6429 8.97979 87.6429 9.29205V13.6914H89.375C89.4388 13.6913 89.5021 13.7038 89.5611 13.7282C89.6201 13.7527 89.6738 13.7885 89.7189 13.8337C89.7641 13.8789 89.8 13.9326 89.8244 13.9916C89.8489 14.0507 89.8615 14.1141 89.8615 14.178V16.2727C89.8615 16.4019 89.8102 16.5259 89.719 16.6173C89.6277 16.7087 89.504 16.76 89.375 16.76H87.6429V26.3781C87.6429 26.5073 87.5916 26.6313 87.5004 26.7227C87.4091 26.8141 87.2854 26.8654 87.1563 26.8654H84.5342C84.4058 26.8645 84.283 26.8127 84.1925 26.7214C84.1021 26.6301 84.0513 26.5067 84.0513 26.3781Z" fill="#0F2233"/>
<path d="M99.2825 25.2253C98.6226 26.3627 97.4864 27.1565 95.8228 27.1565C93.0499 27.1565 91.2275 25.0407 91.2275 22.2092V14.178C91.2275 14.1141 91.2401 14.0507 91.2646 13.9916C91.289 13.9326 91.3249 13.8789 91.3701 13.8337C91.4153 13.7885 91.4689 13.7527 91.5279 13.7282C91.587 13.7038 91.6502 13.6913 91.7141 13.6914H94.3362C94.4 13.6914 94.4632 13.704 94.5221 13.7284C94.5811 13.7529 94.6346 13.7887 94.6797 13.8339C94.7248 13.8791 94.7606 13.9328 94.785 13.9918C94.8095 14.0509 94.822 14.1141 94.822 14.178V21.1776C94.822 22.6587 95.6677 23.6378 97.0406 23.6378C98.3612 23.6378 99.2061 22.7382 99.2854 21.3629V14.178C99.2854 14.1141 99.298 14.0507 99.3225 13.9916C99.347 13.9326 99.3828 13.8789 99.428 13.8337C99.4732 13.7885 99.5268 13.7527 99.5859 13.7282C99.6449 13.7038 99.7081 13.6913 99.772 13.6914H102.394C102.523 13.6914 102.647 13.7427 102.738 13.8339C102.829 13.9252 102.88 14.049 102.88 14.178V26.3781C102.88 26.5072 102.829 26.631 102.738 26.7224C102.647 26.8138 102.523 26.8652 102.394 26.8654H99.772C99.7081 26.8654 99.6448 26.8528 99.5858 26.8283C99.5268 26.8038 99.4731 26.7679 99.428 26.7227C99.3828 26.6774 99.3469 26.6237 99.3225 26.5646C99.298 26.5054 99.2854 26.4421 99.2854 26.3781L99.2825 25.2253Z" fill="#0F2233"/>
<path d="M108.37 15.1211C109.004 14.142 110.008 13.4277 111.486 13.4277C111.649 13.4277 111.863 13.4358 112.069 13.4525C112.191 13.4626 112.304 13.5182 112.387 13.6082C112.47 13.6982 112.515 13.8161 112.515 13.9384V16.6459C112.516 16.7207 112.499 16.7946 112.466 16.8618C112.433 16.9289 112.385 16.9876 112.326 17.0331C112.267 17.0786 112.198 17.1098 112.124 17.1241C112.051 17.1384 111.976 17.1356 111.904 17.1158C111.475 16.9992 111.032 16.942 110.587 16.9458C109.32 16.9458 108.448 17.8213 108.369 19.2213V26.3792C108.369 26.4432 108.356 26.5065 108.332 26.5657C108.308 26.6248 108.272 26.6785 108.227 26.7238C108.182 26.7691 108.128 26.805 108.069 26.8295C108.01 26.854 107.947 26.8666 107.883 26.8666H105.261C105.132 26.8666 105.008 26.8152 104.917 26.7238C104.826 26.6324 104.774 26.5085 104.774 26.3792V14.1792C104.774 14.1152 104.787 14.0519 104.811 13.9928C104.836 13.9337 104.872 13.88 104.917 13.8348C104.962 13.7896 105.016 13.7538 105.075 13.7294C105.134 13.705 105.197 13.6925 105.261 13.6926H107.883C107.947 13.6925 108.01 13.705 108.069 13.7294C108.128 13.7538 108.182 13.7897 108.227 13.8349C108.272 13.8801 108.308 13.9338 108.332 13.9929C108.356 14.0519 108.369 14.1153 108.369 14.1792L108.37 15.1211Z" fill="#0F2233"/>
<path d="M116.589 21.4169C116.907 22.9249 118.227 23.904 120.076 23.904C121.378 23.9041 122.663 23.6135 123.839 23.0533C123.913 23.0166 123.996 22.9995 124.078 23.0037C124.161 23.0078 124.241 23.0329 124.311 23.0768C124.381 23.1206 124.439 23.1817 124.479 23.2542C124.519 23.3267 124.539 23.4083 124.539 23.4911V25.8257C124.538 25.9202 124.511 26.0125 124.459 26.0916C124.407 26.1706 124.334 26.2331 124.248 26.2715C123.103 26.8026 121.532 27.1616 119.782 27.1616C115.873 27.1616 112.995 24.3833 112.995 20.2831C112.995 16.4207 115.768 13.4316 119.571 13.4316C123.374 13.4316 125.724 16.2887 125.724 19.7009C125.717 20.1438 125.674 20.5855 125.596 21.0214C125.576 21.1337 125.517 21.2352 125.429 21.3082C125.342 21.3812 125.231 21.421 125.117 21.4205L116.589 21.4169ZM117.245 18.6926H121.688C121.765 18.6924 121.842 18.6736 121.911 18.6379C121.98 18.6022 122.039 18.5505 122.084 18.4872C122.129 18.4239 122.159 18.3508 122.17 18.2739C122.181 18.1969 122.174 18.1184 122.149 18.0448C121.817 17.0555 120.818 16.4171 119.546 16.4171C118.275 16.4171 117.245 17.0897 116.802 18.0039C116.768 18.0783 116.753 18.1602 116.759 18.2418C116.765 18.3235 116.791 18.4024 116.836 18.4711C116.88 18.5398 116.941 18.5961 117.013 18.6349C117.085 18.6736 117.166 18.6935 117.248 18.6926H117.245Z" fill="#0F2233"/>
<path d="M127.093 9.36431C127.093 9.30034 127.106 9.23699 127.13 9.17786C127.154 9.11874 127.19 9.06501 127.235 9.01974C127.28 8.97448 127.334 8.93857 127.393 8.91406C127.452 8.88956 127.515 8.87695 127.579 8.87695H133.748C139.215 8.87695 142.622 12.6073 142.622 17.8712C142.622 23.1351 139.215 26.8662 133.748 26.8662H127.579C127.515 26.8662 127.452 26.8536 127.393 26.8291C127.334 26.8046 127.28 26.7687 127.235 26.7234C127.19 26.6781 127.154 26.6244 127.13 26.5653C127.106 26.5061 127.093 26.4428 127.093 26.3788V9.36431ZM130.843 12.5015V23.2416H133.722C136.97 23.2416 138.74 20.9405 138.74 17.8712C138.74 14.8296 136.97 12.5015 133.722 12.5015H130.843Z" fill="#0F2233"/>
<path d="M145.778 8.87695C146.944 8.87695 147.766 9.77288 147.766 10.8928C147.766 12.0127 146.946 12.8845 145.778 12.8845C144.635 12.8845 143.791 12.0127 143.791 10.8928C143.791 9.77288 144.635 8.87695 145.778 8.87695ZM147.089 26.8727H144.467C144.403 26.8727 144.34 26.8601 144.281 26.8356C144.222 26.8111 144.169 26.7752 144.123 26.7299C144.078 26.6847 144.043 26.6309 144.018 26.5718C143.994 26.5127 143.981 26.4493 143.981 26.3854V14.1861C143.981 14.1221 143.994 14.0588 144.018 13.9996C144.043 13.9405 144.078 13.8868 144.123 13.8415C144.169 13.7963 144.222 13.7603 144.281 13.7358C144.34 13.7113 144.403 13.6987 144.467 13.6987H147.089C147.218 13.6987 147.342 13.7501 147.433 13.8415C147.525 13.9329 147.576 14.0568 147.576 14.1861V26.3854C147.576 26.4495 147.563 26.513 147.539 26.5722C147.514 26.6314 147.478 26.6852 147.433 26.7305C147.387 26.7758 147.334 26.8116 147.274 26.8361C147.215 26.8605 147.152 26.8729 147.088 26.8727H147.089Z" fill="#0F2233"/>
<path d="M152.816 14.0161L155.765 22.3945L158.74 14.0146C158.774 13.9199 158.836 13.8379 158.918 13.78C159 13.7222 159.098 13.6912 159.198 13.6914H161.952C162.031 13.6915 162.108 13.7106 162.177 13.7471C162.247 13.7835 162.306 13.8363 162.351 13.9008C162.395 13.9653 162.424 14.0396 162.434 14.1175C162.443 14.1954 162.434 14.2745 162.407 14.348L157.785 26.5495C157.75 26.6419 157.688 26.7214 157.607 26.7776C157.526 26.8337 157.429 26.8639 157.331 26.8639H154.226C154.127 26.8639 154.031 26.8337 153.949 26.7774C153.868 26.7211 153.806 26.6413 153.771 26.5488L149.173 14.3488C149.146 14.2752 149.137 14.196 149.146 14.1181C149.156 14.0401 149.185 13.9657 149.229 13.9012C149.274 13.8367 149.334 13.784 149.403 13.7476C149.473 13.7111 149.55 13.6921 149.628 13.6921H152.357C152.457 13.6919 152.556 13.723 152.638 13.781C152.72 13.839 152.782 13.9211 152.816 14.0161Z" fill="#0F2233"/>
<path d="M165.866 21.4169C166.183 22.9249 167.503 23.904 169.352 23.904C170.654 23.9041 171.939 23.6135 173.115 23.0533C173.189 23.0166 173.271 22.9995 173.354 23.0037C173.437 23.0078 173.517 23.0329 173.587 23.0768C173.657 23.1206 173.715 23.1817 173.755 23.2542C173.795 23.3267 173.815 23.4083 173.815 23.4911V25.8257C173.814 25.9202 173.787 26.0125 173.735 26.0916C173.683 26.1706 173.61 26.2331 173.524 26.2715C172.379 26.8026 170.808 27.1616 169.058 27.1616C165.15 27.1616 162.271 24.3833 162.271 20.2831C162.271 16.4207 165.044 13.4316 168.847 13.4316C172.65 13.4316 175 16.2887 175 19.7009C174.993 20.1438 174.95 20.5855 174.872 21.0214C174.852 21.1337 174.793 21.2352 174.705 21.3082C174.618 21.3812 174.507 21.421 174.393 21.4205L165.866 21.4169ZM166.521 18.6926H170.964C171.042 18.6924 171.118 18.6736 171.187 18.6379C171.256 18.6022 171.316 18.5505 171.361 18.4872C171.406 18.4239 171.435 18.3508 171.447 18.2739C171.458 18.1969 171.451 18.1184 171.426 18.0448C171.093 17.0555 170.095 16.4171 168.823 16.4171C167.551 16.4171 166.522 17.0897 166.078 18.0039C166.044 18.0783 166.029 18.16 166.035 18.2417C166.041 18.3233 166.068 18.4021 166.112 18.4708C166.156 18.5395 166.217 18.5958 166.289 18.6346C166.361 18.6734 166.442 18.6933 166.523 18.6926H166.521Z" fill="#0F2233"/>
</svg>
